<?xml version="1.0" standalone="no"?>
<!DOCTYPE svg PUBLIC "-//W3C//DTD SVG 20010904//EN"
 "http://www.w3.org/TR/2001/REC-SVG-20010904/DTD/svg10.dtd">
<svg version="1.0" xmlns="http://www.w3.org/2000/svg"
 width="391.000000pt" height="391.000000pt" viewBox="0 0 391.000000 391.000000"
 preserveAspectRatio="xMidYMid meet">

<g transform="translate(0.000000,391.000000) scale(0.100000,-0.100000)"
fill="#000000" stroke="none">
<path d="M1751 3899 c-226 -24 -459 -94 -678 -204 -377 -190 -668 -481 -858
-858 -286 -568 -286 -1196 0 -1764 190 -377 481 -668 858 -858 568 -286 1196
-286 1764 0 377 190 668 481 858 858 286 568 286 1196 0 1764 -190 377 -481
668 -858 858 -344 173 -714 242 -1086 204z m504 -93 c651 -109 1189 -540 1439
-1152 94 -232 130 -421 130 -699 0 -278 -36 -467 -130 -699 -251 -614 -782
-1039 -1444 -1153 -131 -23 -459 -23 -590 0 -662 114 -1193 539 -1444 1153
-164 402 -178 876 -39 1294 99 299 298 598 534 807 274 242 636 409 975 452
49 6 103 13 119 15 61 9 363 -4 450 -18z"/>
<path d="M1435 2620 c22 -9 73 -30 113 -45 144 -54 285 -165 396 -312 26 -35
49 -63 52 -63 2 0 4 99 4 220 l0 220 -302 -1 c-300 -1 -303 -1 -263 -19z"/>
<path d="M2345 2617 c112 -84 187 -195 201 -297 l6 -49 194 181 c107 100 194
183 194 185 0 1 -141 3 -312 2 l-313 0 30 -22z"/>
<path d="M930 2297 c0 -153 152 -401 312 -510 42 -29 665 -293 742 -315 18 -5
19 -1 13 74 -3 43 -16 107 -27 141 -40 117 -143 250 -246 318 -44 30 -761 335
-786 335 -4 0 -8 -19 -8 -43z"/>
<path d="M2272 2003 c-65 -58 -110 -104 -108 -113 1 -8 106 -156 231 -327
l229 -313 194 0 c154 0 192 3 185 13 -6 6 -142 192 -303 412 -161 220 -298
406 -304 413 -9 9 -36 -9 -124 -85z"/>
<path d="M930 1471 l0 -221 297 0 c163 0 294 2 292 4 -2 2 -52 23 -111 46
-111 43 -225 110 -299 177 -23 21 -73 78 -111 126 l-68 89 0 -221z"/>
</g>
</svg>
