<svg xmlns="http://www.w3.org/2000/svg" viewBox="0 0 260.18 260.18"><defs><style>.cls-1{fill:#fff;}</style></defs><title>Asset 13</title><g id="Layer_2" data-name="Layer 2"><g id="Layer_1-2" data-name="Layer 1"><path class="cls-1" d="M130.09,5a125.09,125.09,0,0,1,88.45,213.54A125.09,125.09,0,1,1,41.64,41.64,124.25,124.25,0,0,1,130.09,5m0-5A130.09,130.09,0,1,0,260.18,130.09,130.09,130.09,0,0,0,130.09,0Z"/><path class="cls-1" d="M82.8,169.31l-2.74-1.76a46.6,46.6,0,0,1-13-12.1l-4.91-6.54v27.82H99.82l-8.73-3.28A43.66,43.66,0,0,1,82.8,169.31Z"/><path class="cls-1" d="M111.92,92.51l2.75,1.76a46.72,46.72,0,0,1,13,12.09l4.91,6.55V85.09H94.91l8.73,3.28A43.28,43.28,0,0,1,111.92,92.51Z"/><path class="cls-1" d="M131.52,151.36h0a36.36,36.36,0,0,0-2-6.13,37.36,37.36,0,0,0-2.88-5.22c-.41-.61-.84-1.22-1.29-1.81l-2.67-3.57,0,0a26.71,26.71,0,0,0-5.48-5.45l-1.42-1a40.68,40.68,0,0,0-5.94-3.66h0l-.29-.13L62.18,104.73v.08a32.59,32.59,0,0,0,2.47,12.92c.25.58.52,1.16.8,1.72l1.64,3.28.26.52A41.4,41.4,0,0,0,75.13,134a2.8,2.8,0,0,0,.31.28l1.87,1.88a39.75,39.75,0,0,0,6.27,5.16l1.51,1,2.65,1.33c.42.21.84.4,1.27.57L132.55,162v-2.32A34.28,34.28,0,0,0,131.52,151.36Z"/><polygon class="cls-1" points="158.73 121.09 144 134.18 175.09 176.73 199.64 176.73 158.73 121.09"/><path class="cls-1" d="M194.73,85.09,170.18,108h0a20.34,20.34,0,0,0-1-6.38l-.18-.52a18.64,18.64,0,0,0-1-2.49l-.1-.19a35.3,35.3,0,0,0-6.63-9.21h0a12.12,12.12,0,0,0-1.84-1.51l-3.92-2.61Z"/></g></g></svg>